<mxfile host="app.diagrams.net" modified="2022-09-30T08:39:53.615Z" agent="5.0 (Macintosh; Intel Mac OS X 10_15_7) AppleWebKit/605.1.15 (KHTML, like Gecko) Version/15.2 Safari/605.1.15" etag="vu8faZIeAqnPVutDkjnu" version="20.3.7" type="github">
  <diagram id="It3pFSVzpkFwf03Y-XyK" name="第 1 页">
    <mxGraphModel dx="1773" dy="645" grid="1" gridSize="10" guides="1" tooltips="1" connect="1" arrows="1" fold="1" page="1" pageScale="1" pageWidth="827" pageHeight="1169" math="0" shadow="0">
      <root>
        <mxCell id="0" />
        <mxCell id="1" parent="0" />
        <mxCell id="ZQI_CC8MGJomAyqvhzs2-1" value="customers" style="rounded=0;whiteSpace=wrap;html=1;" parent="1" vertex="1">
          <mxGeometry x="140" y="180" width="120" height="60" as="geometry" />
        </mxCell>
        <mxCell id="ZQI_CC8MGJomAyqvhzs2-2" value="tickets" style="rounded=0;whiteSpace=wrap;html=1;" parent="1" vertex="1">
          <mxGeometry x="580" y="200" width="120" height="60" as="geometry" />
        </mxCell>
        <mxCell id="ZQI_CC8MGJomAyqvhzs2-3" value="food stand" style="rounded=0;whiteSpace=wrap;html=1;" parent="1" vertex="1">
          <mxGeometry x="120" y="500" width="120" height="60" as="geometry" />
        </mxCell>
        <mxCell id="ZQI_CC8MGJomAyqvhzs2-4" value="venues" style="rounded=0;whiteSpace=wrap;html=1;" parent="1" vertex="1">
          <mxGeometry x="300" y="390" width="120" height="60" as="geometry" />
        </mxCell>
        <mxCell id="ZQI_CC8MGJomAyqvhzs2-5" value="customer_name" style="ellipse;whiteSpace=wrap;html=1;" parent="1" vertex="1">
          <mxGeometry x="10" y="120" width="120" height="80" as="geometry" />
        </mxCell>
        <mxCell id="ZQI_CC8MGJomAyqvhzs2-7" value="customer_address" style="ellipse;whiteSpace=wrap;html=1;" parent="1" vertex="1">
          <mxGeometry x="130" y="60" width="120" height="80" as="geometry" />
        </mxCell>
        <mxCell id="ZQI_CC8MGJomAyqvhzs2-9" value="customer_telephone" style="ellipse;whiteSpace=wrap;html=1;" parent="1" vertex="1">
          <mxGeometry x="280" y="70" width="120" height="80" as="geometry" />
        </mxCell>
        <mxCell id="ZQI_CC8MGJomAyqvhzs2-11" value="dish" style="rounded=0;whiteSpace=wrap;html=1;" parent="1" vertex="1">
          <mxGeometry x="570" y="520" width="120" height="60" as="geometry" />
        </mxCell>
        <mxCell id="ZQI_CC8MGJomAyqvhzs2-16" value="price" style="ellipse;whiteSpace=wrap;html=1;" parent="1" vertex="1">
          <mxGeometry x="560" y="630" width="120" height="80" as="geometry" />
        </mxCell>
        <mxCell id="ZQI_CC8MGJomAyqvhzs2-19" value="&lt;u&gt;customer_id&lt;/u&gt;" style="ellipse;whiteSpace=wrap;html=1;" parent="1" vertex="1">
          <mxGeometry x="30" y="260" width="120" height="80" as="geometry" />
        </mxCell>
        <mxCell id="tFtppjlgr-XyN6fy7QQ8-3" value="sold_number" style="ellipse;whiteSpace=wrap;html=1;" vertex="1" parent="1">
          <mxGeometry x="540" y="70" width="120" height="80" as="geometry" />
        </mxCell>
        <mxCell id="tFtppjlgr-XyN6fy7QQ8-6" value="" style="endArrow=none;html=1;rounded=0;entryX=0.617;entryY=0.975;entryDx=0;entryDy=0;entryPerimeter=0;" edge="1" parent="1" source="ZQI_CC8MGJomAyqvhzs2-2" target="tFtppjlgr-XyN6fy7QQ8-3">
          <mxGeometry width="50" height="50" relative="1" as="geometry">
            <mxPoint x="550" y="200" as="sourcePoint" />
            <mxPoint x="600" y="150" as="targetPoint" />
          </mxGeometry>
        </mxCell>
        <mxCell id="tFtppjlgr-XyN6fy7QQ8-7" value="" style="endArrow=none;html=1;rounded=0;" edge="1" parent="1" source="ZQI_CC8MGJomAyqvhzs2-1" target="ZQI_CC8MGJomAyqvhzs2-7">
          <mxGeometry width="50" height="50" relative="1" as="geometry">
            <mxPoint x="170" y="180" as="sourcePoint" />
            <mxPoint x="220" y="130" as="targetPoint" />
          </mxGeometry>
        </mxCell>
        <mxCell id="tFtppjlgr-XyN6fy7QQ8-8" value="" style="endArrow=none;html=1;rounded=0;" edge="1" parent="1" source="ZQI_CC8MGJomAyqvhzs2-1" target="ZQI_CC8MGJomAyqvhzs2-5">
          <mxGeometry width="50" height="50" relative="1" as="geometry">
            <mxPoint x="60" y="190" as="sourcePoint" />
            <mxPoint x="110" y="140" as="targetPoint" />
          </mxGeometry>
        </mxCell>
        <mxCell id="tFtppjlgr-XyN6fy7QQ8-9" value="" style="endArrow=none;html=1;rounded=0;" edge="1" parent="1" source="ZQI_CC8MGJomAyqvhzs2-1" target="ZQI_CC8MGJomAyqvhzs2-9">
          <mxGeometry width="50" height="50" relative="1" as="geometry">
            <mxPoint x="300" y="220" as="sourcePoint" />
            <mxPoint x="350" y="170" as="targetPoint" />
          </mxGeometry>
        </mxCell>
        <mxCell id="tFtppjlgr-XyN6fy7QQ8-10" value="" style="endArrow=none;html=1;rounded=0;" edge="1" parent="1" source="ZQI_CC8MGJomAyqvhzs2-19" target="ZQI_CC8MGJomAyqvhzs2-1">
          <mxGeometry width="50" height="50" relative="1" as="geometry">
            <mxPoint x="180" y="310" as="sourcePoint" />
            <mxPoint x="230" y="260" as="targetPoint" />
          </mxGeometry>
        </mxCell>
        <mxCell id="tFtppjlgr-XyN6fy7QQ8-12" value="" style="endArrow=none;html=1;rounded=0;" edge="1" parent="1" source="ZQI_CC8MGJomAyqvhzs2-16" target="ZQI_CC8MGJomAyqvhzs2-11">
          <mxGeometry width="50" height="50" relative="1" as="geometry">
            <mxPoint x="550" y="600" as="sourcePoint" />
            <mxPoint x="600" y="550" as="targetPoint" />
          </mxGeometry>
        </mxCell>
        <mxCell id="tFtppjlgr-XyN6fy7QQ8-13" value="purchase" style="rhombus;whiteSpace=wrap;html=1;" vertex="1" parent="1">
          <mxGeometry x="370" y="190" width="80" height="80" as="geometry" />
        </mxCell>
        <mxCell id="tFtppjlgr-XyN6fy7QQ8-14" value="" style="endArrow=none;html=1;rounded=0;entryX=0;entryY=0.5;entryDx=0;entryDy=0;exitX=1;exitY=0.5;exitDx=0;exitDy=0;" edge="1" parent="1" source="ZQI_CC8MGJomAyqvhzs2-1" target="tFtppjlgr-XyN6fy7QQ8-13">
          <mxGeometry width="50" height="50" relative="1" as="geometry">
            <mxPoint x="290" y="250" as="sourcePoint" />
            <mxPoint x="340" y="200" as="targetPoint" />
          </mxGeometry>
        </mxCell>
        <mxCell id="tFtppjlgr-XyN6fy7QQ8-15" value="" style="endArrow=none;html=1;rounded=0;entryX=0;entryY=0.5;entryDx=0;entryDy=0;exitX=1;exitY=0.5;exitDx=0;exitDy=0;" edge="1" parent="1" source="tFtppjlgr-XyN6fy7QQ8-13" target="ZQI_CC8MGJomAyqvhzs2-2">
          <mxGeometry width="50" height="50" relative="1" as="geometry">
            <mxPoint x="500" y="270" as="sourcePoint" />
            <mxPoint x="550" y="220" as="targetPoint" />
          </mxGeometry>
        </mxCell>
        <mxCell id="tFtppjlgr-XyN6fy7QQ8-16" value="1" style="text;html=1;align=center;verticalAlign=middle;resizable=0;points=[];autosize=1;strokeColor=none;fillColor=none;" vertex="1" parent="1">
          <mxGeometry x="305" y="195" width="30" height="30" as="geometry" />
        </mxCell>
        <mxCell id="tFtppjlgr-XyN6fy7QQ8-17" value="many" style="text;html=1;align=center;verticalAlign=middle;resizable=0;points=[];autosize=1;strokeColor=none;fillColor=none;" vertex="1" parent="1">
          <mxGeometry x="495" y="205" width="50" height="30" as="geometry" />
        </mxCell>
        <mxCell id="tFtppjlgr-XyN6fy7QQ8-18" value="&lt;u&gt;name&lt;/u&gt;" style="ellipse;whiteSpace=wrap;html=1;" vertex="1" parent="1">
          <mxGeometry x="-40" y="600" width="120" height="80" as="geometry" />
        </mxCell>
        <mxCell id="tFtppjlgr-XyN6fy7QQ8-19" value="" style="endArrow=none;html=1;rounded=0;exitX=0.675;exitY=0.05;exitDx=0;exitDy=0;exitPerimeter=0;" edge="1" parent="1" source="tFtppjlgr-XyN6fy7QQ8-18" target="ZQI_CC8MGJomAyqvhzs2-3">
          <mxGeometry width="50" height="50" relative="1" as="geometry">
            <mxPoint x="90" y="640" as="sourcePoint" />
            <mxPoint x="140" y="590" as="targetPoint" />
          </mxGeometry>
        </mxCell>
        <mxCell id="tFtppjlgr-XyN6fy7QQ8-20" value="country" style="ellipse;whiteSpace=wrap;html=1;" vertex="1" parent="1">
          <mxGeometry x="100" y="600" width="120" height="80" as="geometry" />
        </mxCell>
        <mxCell id="tFtppjlgr-XyN6fy7QQ8-21" value="" style="endArrow=none;html=1;rounded=0;" edge="1" parent="1" source="tFtppjlgr-XyN6fy7QQ8-20" target="ZQI_CC8MGJomAyqvhzs2-3">
          <mxGeometry width="50" height="50" relative="1" as="geometry">
            <mxPoint x="210" y="620" as="sourcePoint" />
            <mxPoint x="260" y="570" as="targetPoint" />
          </mxGeometry>
        </mxCell>
        <mxCell id="tFtppjlgr-XyN6fy7QQ8-22" value="has" style="rhombus;whiteSpace=wrap;html=1;" vertex="1" parent="1">
          <mxGeometry x="360" y="530" width="80" height="80" as="geometry" />
        </mxCell>
        <mxCell id="tFtppjlgr-XyN6fy7QQ8-23" value="" style="endArrow=none;html=1;rounded=0;exitX=1;exitY=0.5;exitDx=0;exitDy=0;" edge="1" parent="1" source="ZQI_CC8MGJomAyqvhzs2-3" target="tFtppjlgr-XyN6fy7QQ8-22">
          <mxGeometry width="50" height="50" relative="1" as="geometry">
            <mxPoint x="290" y="580" as="sourcePoint" />
            <mxPoint x="340" y="530" as="targetPoint" />
          </mxGeometry>
        </mxCell>
        <mxCell id="tFtppjlgr-XyN6fy7QQ8-24" value="" style="endArrow=none;html=1;rounded=0;entryX=0;entryY=0.5;entryDx=0;entryDy=0;exitX=1;exitY=0.5;exitDx=0;exitDy=0;" edge="1" parent="1" source="tFtppjlgr-XyN6fy7QQ8-22" target="ZQI_CC8MGJomAyqvhzs2-11">
          <mxGeometry width="50" height="50" relative="1" as="geometry">
            <mxPoint x="490" y="590" as="sourcePoint" />
            <mxPoint x="540" y="540" as="targetPoint" />
          </mxGeometry>
        </mxCell>
      </root>
    </mxGraphModel>
  </diagram>
</mxfile>
